<svg width="24" height="24" viewBox="0 0 24 24" fill="none" xmlns="http://www.w3.org/2000/svg">
<path d="M19.5356 5.08484H4.5112V18.7434H19.5356V5.08484Z" fill="white"/>
<path fill-rule="evenodd" clip-rule="evenodd" d="M3.51414 0.0117188H20.8605C22.5873 0.0117188 24.0019 1.4244 24.0019 3.15318V20.8468C24.0019 22.5737 22.5893 23.9883 20.8605 23.9883H3.16487C1.43804 23.9883 0.023407 22.5756 0.023407 20.8468V3.5005C0.023407 1.58245 1.59414 0.0117188 3.51414 0.0117188ZM6.76292 6.07221H13.6254C14.7688 6.07221 15.6449 6.35708 16.2576 6.92294C16.8702 7.48879 17.1766 8.18928 17.1766 9.02635C17.1766 9.72684 16.958 10.3298 16.519 10.8293C16.2283 11.1668 15.801 11.4283 15.241 11.6234C16.0937 11.8283 16.718 12.1776 17.12 12.6771C17.52 13.1766 17.721 13.8029 17.721 14.5561C17.721 15.1707 17.5766 15.7229 17.2937 16.2146C17.0068 16.7064 16.6146 17.0927 16.121 17.3795C15.8127 17.5571 15.3483 17.6859 14.7278 17.7659C13.9024 17.8732 13.3561 17.9278 13.0849 17.9278H6.76292V6.07221ZM10.4546 10.7259H12.0527C12.6244 10.7259 13.0244 10.6264 13.2468 10.4312C13.4712 10.2322 13.5844 9.94928 13.5844 9.5766C13.5844 9.23123 13.4712 8.96196 13.2468 8.76879C13.0224 8.57367 12.6322 8.47611 12.0761 8.47611H10.4527V10.7259H10.4546ZM10.4546 15.3776H12.3219C12.9541 15.3776 13.399 15.2644 13.6585 15.04C13.918 14.8156 14.0468 14.519 14.0468 14.1405C14.0468 13.7893 13.92 13.5083 13.6624 13.2956C13.4049 13.0829 12.9561 12.9756 12.3122 12.9756H10.4527V15.3776H10.4546Z" fill="black"/>
</svg>
