<svg xmlns="http://www.w3.org/2000/svg" width="36" height="26" viewBox="0 0 36 26" fill="none">
<path d="M6.91015 8.18302L7.13388 8.11392L7.22404 7.89782C9.11838 3.35765 13.2527 0.5 18 0.5C24.1401 0.5 29.2453 5.25472 30.0029 11.4119L30.4992 11.3509L30.3769 11.8357C31.8325 12.2029 33.1299 13.0638 34.0599 14.2845C34.99 15.5054 35.498 17.015 35.5 18.5721C35.4997 22.3815 32.5204 25.4583 28.8743 25.4996L28.282 25.3162V25.5H8.9744V25.4759L8.50507 25.4471C4.06255 25.1741 0.5 21.3925 0.5 16.7143C0.5 12.8947 3.24392 9.31534 6.91015 8.18302ZM10.8 12.5H9.77961L10.4049 13.3064L17.6049 22.5921L18 23.1017L18.3951 22.5921L25.5951 13.3064L26.2204 12.5H25.2H20.3V7.42857V6.92857H19.8H16.2H15.7V7.42857V12.5H10.8Z" fill="url(#paint0_linear_7_254)" stroke="white"/>
<defs>
<linearGradient id="paint0_linear_7_254" x1="4.06451" y1="-16.5455" x2="32.738" y2="42.1534" gradientUnits="userSpaceOnUse">
<stop offset="0.0260001" stop-color="#521CEC"/>
<stop offset="1" stop-color="#4A25B5"/>
</linearGradient>
</defs>
</svg>