<svg xmlns="http://www.w3.org/2000/svg" width="143" height="106" viewBox="0 0 143 106" fill="none">
<path d="M92.8237 32.3418L92.7763 32.3182L92.658 32.2711C92.6817 32.3182 92.7527 32.3418 92.8237 32.3418Z" fill="#010202"/>
<path d="M93.5337 37.8538L93.6283 37.8067L93.652 37.7831L93.6757 37.7596C93.6283 37.7831 93.581 37.8302 93.5337 37.8538Z" fill="#010202"/>
<path d="M92.9657 32.4596L92.871 32.3654L92.8 32.3418C92.8473 32.3889 92.8947 32.436 92.9657 32.4596Z" fill="#010202"/>
<path d="M70.79 86.2604C70.719 86.284 70.648 86.3311 70.6007 86.4018L70.648 86.3547C70.719 86.3075 70.7663 86.284 70.79 86.2604Z" fill="#010202"/>
<path d="M83.6883 83.7164C83.6883 83.6458 83.641 83.6458 83.6647 83.9284C83.6647 83.9049 83.6647 83.8813 83.6883 83.8578C83.6647 83.8342 83.6647 83.7871 83.6883 83.7164Z" fill="#010202"/>
<path d="M82.3393 86.2604C82.2683 86.284 82.1973 86.3311 82.15 86.4018L82.1973 86.3547C82.2683 86.3075 82.3157 86.284 82.3393 86.2604Z" fill="#010202"/>
<path d="M61.7257 86.8494C61.6783 86.8022 61.6073 86.7787 61.5363 86.7551C61.5836 86.7787 61.6547 86.8022 61.6783 86.8258L61.7257 86.8494Z" fill="#010202"/>
<path d="M59.714 84.9178C59.714 84.8471 59.6903 84.7529 59.643 84.6823C59.6667 84.7529 59.6903 84.8236 59.714 84.9178Z" fill="#010202"/>
<path d="M73.3933 50.1263C70.6007 51.3276 67.4057 52.6703 63.2877 52.6703C61.56 52.6703 59.856 52.4347 58.1993 51.9636L61.0393 81.0783C61.134 82.3031 61.702 83.4338 62.6013 84.2583C63.5007 85.0827 64.684 85.5538 65.9147 85.5538C65.9147 85.5538 69.9617 85.7658 71.3107 85.7658C72.7543 85.7658 77.109 85.5538 77.109 85.5538C78.3397 85.5538 79.523 85.1063 80.4223 84.2583C81.3217 83.4338 81.8897 82.3031 81.9843 81.0783L85.0373 48.9249C83.6647 48.4538 82.292 48.1476 80.7537 48.1476C78.0557 48.1476 75.902 49.0663 73.3933 50.1263Z" fill="#FFDD06"/>
<path d="M49.3717 37.736L49.419 37.7831L49.4427 37.8067C49.4427 37.7596 49.419 37.736 49.3717 37.736Z" fill="#010202"/>
<path d="M98.196 35.0271L97.77 32.8835C97.3913 30.952 96.5157 29.1146 94.5277 28.4315C93.8887 28.2195 93.155 28.1018 92.6817 27.6542C92.1847 27.1831 92.0427 26.4764 91.9243 25.8169C91.7113 24.592 91.522 23.3671 91.309 22.1422C91.1197 21.0822 90.9777 19.9044 90.5043 18.9622C89.8653 17.6666 88.5637 16.9129 87.262 16.4182C86.5993 16.1826 85.913 15.9706 85.2267 15.7822C81.9843 14.9342 78.5763 14.628 75.2393 14.4395C71.2397 14.2275 67.2163 14.2746 63.2167 14.628C60.2347 14.8871 57.1107 15.2169 54.2943 16.2533C53.253 16.6302 52.188 17.0778 51.407 17.8786C50.4367 18.8444 50.129 20.3755 50.839 21.5769C51.336 22.4484 52.188 23.0609 53.0873 23.4613C54.247 23.9795 55.4777 24.38 56.732 24.6391C60.2347 25.4164 63.832 25.6991 67.4057 25.8404C71.358 26.0053 75.3103 25.864 79.2627 25.4635C80.233 25.3458 81.2033 25.228 82.1737 25.0866C83.3097 24.9218 84.0433 23.4142 83.712 22.4013C83.3097 21.1529 82.221 20.6818 81.014 20.8702C80.8247 20.8938 80.659 20.9173 80.4697 20.9409L80.3513 20.9644C79.9253 21.0115 79.523 21.0586 79.097 21.1058C78.245 21.2 77.393 21.2706 76.5173 21.3413C74.6003 21.4826 72.6597 21.5298 70.719 21.5298C68.8257 21.5298 66.9323 21.4826 65.039 21.3413C64.1633 21.2942 63.3113 21.2235 62.4593 21.1293C62.057 21.0822 61.6783 21.0351 61.2997 20.988L60.921 20.9409H60.85L60.4713 20.8938C59.6903 20.776 58.9093 20.6346 58.1283 20.4698C58.0573 20.4462 57.9863 20.3991 57.939 20.352C57.8917 20.3049 57.868 20.2106 57.868 20.14C57.868 20.0693 57.8917 19.9751 57.939 19.928C57.9863 19.8809 58.0573 19.8338 58.1283 19.8102H58.152C58.8147 19.6689 59.501 19.5511 60.1873 19.4333C60.424 19.3862 60.637 19.3626 60.8737 19.3391C61.2997 19.3155 61.7257 19.2449 62.1517 19.1742C65.8437 18.7973 69.5593 18.656 73.275 18.7738C75.0737 18.8209 76.8723 18.9386 78.671 19.1035C79.0497 19.1506 79.452 19.1742 79.8307 19.2213C79.9727 19.2449 80.1147 19.2684 80.2803 19.2684L80.588 19.3155C81.4637 19.4333 82.3157 19.5982 83.1913 19.7866C84.4693 20.0693 86.1023 20.1635 86.6703 21.5298C86.8597 21.9773 86.9307 22.4484 87.0253 22.9195L87.1437 23.5084V23.532C87.4513 24.9218 87.7353 26.3115 88.043 27.7013C88.0667 27.7955 88.0667 27.9133 88.043 28.0075C88.0193 28.1018 87.972 28.2195 87.9247 28.2902C87.8537 28.3844 87.7827 28.4551 87.688 28.5022C87.5933 28.5493 87.4987 28.5964 87.404 28.5964L87.2147 28.62L87.0253 28.6435C86.4573 28.7142 85.8657 28.7849 85.2977 28.8555C84.1617 28.9733 83.0257 29.0911 81.8897 29.1853C79.6177 29.3738 77.3693 29.4915 75.0973 29.5622C73.9377 29.5858 72.778 29.6093 71.6183 29.6093C67.0033 29.6093 62.412 29.3502 57.8443 28.8084C57.3473 28.7613 56.8503 28.6906 56.3533 28.62C56.732 28.6671 56.0693 28.5729 55.951 28.5729C55.6433 28.5258 55.312 28.4786 55.0043 28.4315C53.9393 28.2666 52.898 28.0782 51.833 27.9133C50.555 27.7013 49.348 27.8191 48.1883 28.4315C47.2417 28.9498 46.4843 29.7271 45.9873 30.6929C45.4903 31.7058 45.3483 32.8364 45.1117 33.92C44.8987 35.0271 44.5437 36.2049 44.6857 37.3355C44.9697 39.7618 46.6737 41.7404 49.135 42.188C51.4543 42.612 53.7737 42.9418 56.1167 43.2244C65.2757 44.3315 74.553 44.4729 83.7357 43.6249C84.493 43.5542 85.2267 43.4835 85.984 43.3893C86.2207 43.3658 86.4573 43.3893 86.6703 43.46C86.8833 43.5306 87.0963 43.672 87.262 43.8369C87.4277 44.0018 87.546 44.1902 87.6407 44.4258C87.7117 44.6378 87.759 44.8733 87.7353 45.1089L87.4987 47.3702C87.0253 51.9164 86.552 56.4626 86.1023 61.0324C85.6053 65.8142 85.132 70.596 84.635 75.3778C84.493 76.7204 84.351 78.0631 84.209 79.4058C84.067 80.7249 84.067 82.0911 83.8067 83.4102C83.4043 85.4595 82.008 86.7315 79.9727 87.2026C78.103 87.6266 76.186 87.8386 74.269 87.8622C72.139 87.8622 70.009 87.7915 67.879 87.7915C65.607 87.8151 62.8143 87.6031 61.063 85.9071C59.5247 84.4231 59.3117 82.1146 59.0987 80.1124C58.8147 77.4742 58.5307 74.8124 58.2703 72.1742L56.732 57.452L55.738 47.912C55.7143 47.7471 55.7143 47.6058 55.6907 47.4409C55.5723 46.3102 54.7677 45.2031 53.4897 45.2502C52.401 45.2973 51.1703 46.216 51.2887 47.4409L52.0223 54.5075L53.5607 69.112C53.9867 73.2578 54.4363 77.4035 54.8623 81.5729C54.957 82.3738 55.028 83.1746 55.1227 83.952C55.596 88.3098 58.933 90.6418 63.0747 91.3013C65.4887 91.6782 67.95 91.7724 70.4113 91.796C73.559 91.8431 76.7303 91.9609 79.807 91.3955C84.3747 90.5711 87.8063 87.5324 88.3033 82.7978C88.4453 81.4315 88.5873 80.0653 88.7293 78.7226C89.2027 74.2235 89.6523 69.7244 90.1257 65.2018L91.6403 50.4795L92.3267 43.7426C92.3503 43.4129 92.4923 43.0831 92.729 42.8475C92.9657 42.612 93.2497 42.4235 93.581 42.3764C94.8827 42.1173 96.137 41.6933 97.06 40.704C98.4327 39.1493 98.7167 37.1 98.196 35.0271ZM49.0167 36.4875C49.0403 36.4875 48.993 36.6524 48.993 36.7231C48.9693 36.6053 48.9693 36.4875 49.0167 36.4875ZM49.135 37.4533C49.135 37.4533 49.1823 37.4769 49.206 37.5475C49.1587 37.5004 49.135 37.4533 49.135 37.4533ZM49.2533 37.6182C49.3243 37.7595 49.3007 37.7124 49.2533 37.6182ZM93.3917 37.524C92.9183 37.9715 92.2083 38.1835 91.522 38.2778C83.6883 39.432 75.7127 40.0209 67.7843 39.7618C62.1043 39.5733 56.4953 38.9373 50.8627 38.16C50.3183 38.0893 49.7267 37.9715 49.348 37.5711C48.638 36.8173 48.993 35.2862 49.1823 34.344C49.348 33.496 49.6793 32.3653 50.697 32.2475C52.259 32.0591 54.105 32.7186 55.6433 32.9542C57.513 33.2369 59.4063 33.4724 61.276 33.6373C69.3227 34.3675 77.535 34.2498 85.5343 33.1898C87.0017 33.0013 88.4453 32.7658 89.9127 32.5066C91.2143 32.2711 92.6343 31.8471 93.4153 33.1662C93.9597 34.0849 94.0307 35.2862 93.936 36.3226C93.936 36.7938 93.723 37.2178 93.3917 37.524Z" fill="#010202"/>
</svg>