<svg width="25" height="24" viewBox="0 0 25 24" fill="none" xmlns="http://www.w3.org/2000/svg">
<path fill-rule="evenodd" clip-rule="evenodd" d="M20.0234 1C21.6803 1 23.0234 2.34315 23.0234 4V20C23.0234 21.6569 21.6803 23 20.0234 23H4.02341C2.36656 23 1.02341 21.6569 1.02341 20V4C1.02341 2.34315 2.36656 1 4.02341 1H20.0234ZM20.0234 3C20.5757 3 21.0234 3.44772 21.0234 4V20C21.0234 20.5523 20.5757 21 20.0234 21H15.0234V13.9999H17.0996C17.53 13.9999 17.9121 13.7245 18.0483 13.3161L18.4913 11.9871C18.6532 11.5014 18.2917 10.9999 17.7798 10.9999H15.0234V8.99992C15.0234 8.49992 15.5234 7.99992 16.0234 7.99992H18.0234C18.5757 7.99992 19.0234 7.5522 19.0234 6.99992V6.31393C19.0234 5.99091 18.8171 5.7013 18.5047 5.61887C17.1939 5.27295 16.0234 5.27295 16.0234 5.27295C13.5234 5.27295 12.0234 6.99992 12.0234 8.49992V10.9999H10.0234C9.47113 10.9999 9.02341 11.4476 9.02341 11.9999V12.9999C9.02341 13.5522 9.47112 13.9999 10.0234 13.9999H12.0234V21H4.02341C3.47113 21 3.02341 20.5523 3.02341 20V4C3.02341 3.44772 3.47113 3 4.02341 3H20.0234Z" fill="#0F0F0F"/>
</svg>
