<svg width="23" height="22" viewBox="0 0 23 22" fill="none" xmlns="http://www.w3.org/2000/svg">
<path fill-rule="evenodd" clip-rule="evenodd" d="M11.6234 17C14.9371 17 17.6234 14.3137 17.6234 11C17.6234 7.68629 14.9371 5 11.6234 5C8.3097 5 5.62341 7.68629 5.62341 11C5.62341 14.3137 8.3097 17 11.6234 17ZM11.6234 15C13.8325 15 15.6234 13.2091 15.6234 11C15.6234 8.79086 13.8325 7 11.6234 7C9.41427 7 7.62341 8.79086 7.62341 11C7.62341 13.2091 9.41427 15 11.6234 15Z" fill="#0F0F0F"/>
<path d="M17.6234 4C17.0711 4 16.6234 4.44772 16.6234 5C16.6234 5.55228 17.0711 6 17.6234 6C18.1757 6 18.6234 5.55228 18.6234 5C18.6234 4.44772 18.1757 4 17.6234 4Z" fill="#0F0F0F"/>
<path fill-rule="evenodd" clip-rule="evenodd" d="M1.27737 3.27606C0.623413 4.55953 0.623413 6.23969 0.623413 9.6V12.4C0.623413 15.7603 0.623413 17.4405 1.27737 18.7239C1.85261 19.8529 2.77049 20.7708 3.89947 21.346C5.18294 22 6.8631 22 10.2234 22H13.0234C16.3837 22 18.0639 22 19.3473 21.346C20.4763 20.7708 21.3942 19.8529 21.9694 18.7239C22.6234 17.4405 22.6234 15.7603 22.6234 12.4V9.6C22.6234 6.23969 22.6234 4.55953 21.9694 3.27606C21.3942 2.14708 20.4763 1.2292 19.3473 0.65396C18.0639 0 16.3837 0 13.0234 0H10.2234C6.8631 0 5.18294 0 3.89947 0.65396C2.77049 1.2292 1.85261 2.14708 1.27737 3.27606ZM13.0234 2H10.2234C8.51025 2 7.34566 2.00156 6.44549 2.0751C5.56865 2.14674 5.12025 2.27659 4.80745 2.43597C4.0548 2.81947 3.44288 3.43139 3.05938 4.18404C2.9 4.49684 2.77015 4.94524 2.69851 5.82208C2.62497 6.72225 2.62341 7.88684 2.62341 9.6V12.4C2.62341 14.1132 2.62497 15.2777 2.69851 16.1779C2.77015 17.0548 2.9 17.5032 3.05938 17.816C3.44288 18.5686 4.0548 19.1805 4.80745 19.564C5.12025 19.7234 5.56865 19.8533 6.44549 19.9249C7.34566 19.9984 8.51025 20 10.2234 20H13.0234C14.7366 20 15.9011 19.9984 16.8013 19.9249C17.6782 19.8533 18.1266 19.7234 18.4394 19.564C19.192 19.1805 19.8039 18.5686 20.1874 17.816C20.3468 17.5032 20.4767 17.0548 20.5483 16.1779C20.6218 15.2777 20.6234 14.1132 20.6234 12.4V9.6C20.6234 7.88684 20.6218 6.72225 20.5483 5.82208C20.4767 4.94524 20.3468 4.49684 20.1874 4.18404C19.8039 3.43139 19.192 2.81947 18.4394 2.43597C18.1266 2.27659 17.6782 2.14674 16.8013 2.0751C15.9011 2.00156 14.7366 2 13.0234 2Z" fill="#0F0F0F"/>
</svg>
